<mxfile host="drawio-plugin" modified="2022-08-29T01:51:26.854Z" agent="5.0 (Windows NT 6.1; Win64; x64) AppleWebKit/537.36 (KHTML, like Gecko) Chrome/89.0.4389.114 Safari/537.36" etag="8aBpzealB2M4_pwlaVaj" version="15.5.4" type="embed" pages="5"><diagram id="0Dp8shdIOQLFL8MmW0el" name="新建对象dup流程1"><mxGraphModel dx="1378" dy="728" grid="1" gridSize="10" guides="1" tooltips="1" connect="1" arrows="1" fold="1" page="1" pageScale="1" pageWidth="827" pageHeight="1169" math="0" shadow="0"><root><mxCell id="0"/><mxCell id="1" parent="0"/><mxCell id="VMKCHlNZYg0owMNCE_kf-1" value="//" style="group" parent="1" vertex="1" connectable="0"><mxGeometry x="30" y="25" width="730" height="425" as="geometry"/></mxCell><mxCell id="sA7lgrb3P8GjbhxIHnkY-1" value="" style="rounded=0;whiteSpace=wrap;html=1;fontColor=#FF0000;strokeColor=#FF0000;fillStyle=auto;" parent="VMKCHlNZYg0owMNCE_kf-1" vertex="1"><mxGeometry width="730" height="425" as="geometry"/></mxCell><mxCell id="mVrtyMsT-sCLX_ixmn3M-1" value="" style="group" parent="VMKCHlNZYg0owMNCE_kf-1" vertex="1" connectable="0"><mxGeometry x="40" y="15" width="663" height="400" as="geometry"/></mxCell><mxCell id="AqpouMpvnQwL-PFYOgF--2" value="方法代码" style="text;html=1;strokeColor=none;fillColor=none;align=center;verticalAlign=middle;whiteSpace=wrap;rounded=0;" parent="mVrtyMsT-sCLX_ixmn3M-1" vertex="1"><mxGeometry x="70" width="60" height="30" as="geometry"/></mxCell><mxCell id="AqpouMpvnQwL-PFYOgF--3" value="&lt;pre style=&quot;background-color:#2b2b2b;color:#a9b7c6;font-family:'JetBrains Mono',monospace;font-size:9.8pt;&quot;&gt;&lt;span style=&quot;color:#cc7832;&quot;&gt;public static void &lt;/span&gt;&lt;span style=&quot;color:#ffc66d;&quot;&gt;main&lt;/span&gt;(String[] args) {&lt;br&gt;    &lt;span style=&quot;color:#cc7832;&quot;&gt;int &lt;/span&gt;x&lt;span style=&quot;color:#cc7832;&quot;&gt;;&lt;br&gt;&lt;/span&gt;&lt;span style=&quot;color:#cc7832;&quot;&gt;    int &lt;/span&gt;y = x = &lt;span style=&quot;color:#6897bb;&quot;&gt;2&lt;/span&gt;&lt;span style=&quot;color:#cc7832;&quot;&gt;;&lt;br&gt;&lt;/span&gt;}&lt;/pre&gt;" style="text;html=1;strokeColor=default;fillColor=none;align=center;verticalAlign=middle;whiteSpace=wrap;rounded=0;" parent="mVrtyMsT-sCLX_ixmn3M-1" vertex="1"><mxGeometry y="60" width="210" height="30" as="geometry"/></mxCell><mxCell id="AqpouMpvnQwL-PFYOgF--4" value="&lt;div&gt;&lt;font color=&quot;#ff3333&quot;&gt;0 iconst_2&lt;/font&gt;&lt;/div&gt;&lt;div&gt;1 dup&lt;/div&gt;&lt;div&gt;2 istore_1&lt;/div&gt;&lt;div&gt;3 istore_2&lt;/div&gt;&lt;div&gt;4 return&lt;/div&gt;&lt;div&gt;&lt;br&gt;&lt;/div&gt;" style="text;html=1;strokeColor=default;fillColor=none;align=left;verticalAlign=middle;whiteSpace=wrap;rounded=0;" parent="mVrtyMsT-sCLX_ixmn3M-1" vertex="1"><mxGeometry x="284" y="40" width="60" height="90" as="geometry"/></mxCell><mxCell id="AqpouMpvnQwL-PFYOgF--5" value="字节码指令" style="text;html=1;strokeColor=none;fillColor=none;align=center;verticalAlign=middle;whiteSpace=wrap;rounded=0;" parent="mVrtyMsT-sCLX_ixmn3M-1" vertex="1"><mxGeometry x="278" width="66" height="30" as="geometry"/></mxCell><mxCell id="AqpouMpvnQwL-PFYOgF--6" value="" style="rounded=0;whiteSpace=wrap;html=1;strokeColor=default;" parent="mVrtyMsT-sCLX_ixmn3M-1" vertex="1"><mxGeometry x="140" y="170" width="270" height="190" as="geometry"/></mxCell><mxCell id="AqpouMpvnQwL-PFYOgF--7" value="程序计数器" style="text;html=1;strokeColor=none;fillColor=none;align=center;verticalAlign=middle;whiteSpace=wrap;rounded=0;" parent="mVrtyMsT-sCLX_ixmn3M-1" vertex="1"><mxGeometry x="597" y="10" width="66" height="30" as="geometry"/></mxCell><mxCell id="AqpouMpvnQwL-PFYOgF--9" value="本地变量表" style="text;html=1;strokeColor=none;fillColor=none;align=center;verticalAlign=middle;whiteSpace=wrap;rounded=0;" parent="mVrtyMsT-sCLX_ixmn3M-1" vertex="1"><mxGeometry x="160" y="300" width="70" height="30" as="geometry"/></mxCell><mxCell id="AqpouMpvnQwL-PFYOgF--11" value="操作数栈" style="text;html=1;strokeColor=none;fillColor=none;align=center;verticalAlign=middle;whiteSpace=wrap;rounded=0;" parent="mVrtyMsT-sCLX_ixmn3M-1" vertex="1"><mxGeometry x="315" y="260" width="70" height="30" as="geometry"/></mxCell><mxCell id="AqpouMpvnQwL-PFYOgF--15" value="args" style="rounded=0;whiteSpace=wrap;html=1;strokeColor=default;" parent="mVrtyMsT-sCLX_ixmn3M-1" vertex="1"><mxGeometry x="140" y="170" width="120" height="40" as="geometry"/></mxCell><mxCell id="AqpouMpvnQwL-PFYOgF--17" value="" style="rounded=0;whiteSpace=wrap;html=1;strokeColor=default;" parent="mVrtyMsT-sCLX_ixmn3M-1" vertex="1"><mxGeometry x="140" y="210" width="120" height="40" as="geometry"/></mxCell><mxCell id="AqpouMpvnQwL-PFYOgF--18" value="" style="rounded=0;whiteSpace=wrap;html=1;strokeColor=default;" parent="mVrtyMsT-sCLX_ixmn3M-1" vertex="1"><mxGeometry x="140" y="250" width="120" height="40" as="geometry"/></mxCell><mxCell id="AqpouMpvnQwL-PFYOgF--19" value="2" style="rounded=0;whiteSpace=wrap;html=1;strokeColor=default;" parent="mVrtyMsT-sCLX_ixmn3M-1" vertex="1"><mxGeometry x="290" y="170" width="120" height="40" as="geometry"/></mxCell><mxCell id="AqpouMpvnQwL-PFYOgF--20" value="" style="rounded=0;whiteSpace=wrap;html=1;strokeColor=default;" parent="mVrtyMsT-sCLX_ixmn3M-1" vertex="1"><mxGeometry x="290" y="210" width="120" height="40" as="geometry"/></mxCell><mxCell id="AqpouMpvnQwL-PFYOgF--25" style="edgeStyle=orthogonalEdgeStyle;rounded=0;orthogonalLoop=1;jettySize=auto;html=1;entryX=1;entryY=0.5;entryDx=0;entryDy=0;" parent="mVrtyMsT-sCLX_ixmn3M-1" source="AqpouMpvnQwL-PFYOgF--22" target="AqpouMpvnQwL-PFYOgF--19" edge="1"><mxGeometry relative="1" as="geometry"><Array as="points"><mxPoint x="560" y="53"/><mxPoint x="560" y="190"/></Array></mxGeometry></mxCell><mxCell id="AqpouMpvnQwL-PFYOgF--22" value="&lt;font color=&quot;#ff0000&quot;&gt;0&lt;/font&gt;" style="rounded=0;whiteSpace=wrap;html=1;strokeColor=default;" parent="mVrtyMsT-sCLX_ixmn3M-1" vertex="1"><mxGeometry x="597" y="40" width="60" height="25" as="geometry"/></mxCell><mxCell id="AqpouMpvnQwL-PFYOgF--24" value="栈帧" style="text;html=1;strokeColor=none;fillColor=none;align=center;verticalAlign=middle;whiteSpace=wrap;rounded=0;" parent="mVrtyMsT-sCLX_ixmn3M-1" vertex="1"><mxGeometry x="240" y="370" width="66" height="30" as="geometry"/></mxCell><mxCell id="AqpouMpvnQwL-PFYOgF--27" style="edgeStyle=orthogonalEdgeStyle;rounded=0;orthogonalLoop=1;jettySize=auto;html=1;fontColor=#FF3333;" parent="mVrtyMsT-sCLX_ixmn3M-1" source="AqpouMpvnQwL-PFYOgF--26" edge="1"><mxGeometry relative="1" as="geometry"><mxPoint x="346" y="50" as="targetPoint"/></mxGeometry></mxCell><mxCell id="AqpouMpvnQwL-PFYOgF--26" value="将2压入操作数栈中" style="text;html=1;strokeColor=default;fillColor=none;align=center;verticalAlign=middle;whiteSpace=wrap;rounded=0;fontColor=#FF3333;" parent="mVrtyMsT-sCLX_ixmn3M-1" vertex="1"><mxGeometry x="410" y="35" width="130" height="30" as="geometry"/></mxCell></root></mxGraphModel></diagram><diagram name="新建对象dup流程2" id="h9jAzs_M9MHGd1jNn3kJ"><mxGraphModel dx="1378" dy="728" grid="1" gridSize="10" guides="1" tooltips="1" connect="1" arrows="1" fold="1" page="1" pageScale="1" pageWidth="827" pageHeight="1169" math="0" shadow="0"><root><mxCell id="OqZSjk8xdFnqXvz6G1Ad-0"/><mxCell id="OqZSjk8xdFnqXvz6G1Ad-1" parent="OqZSjk8xdFnqXvz6G1Ad-0"/><mxCell id="OqZSjk8xdFnqXvz6G1Ad-2" value="" style="rounded=0;whiteSpace=wrap;html=1;fontColor=#FF0000;strokeColor=#FF0000;fillStyle=auto;" parent="OqZSjk8xdFnqXvz6G1Ad-1" vertex="1"><mxGeometry x="30" y="25" width="730" height="425" as="geometry"/></mxCell><mxCell id="OqZSjk8xdFnqXvz6G1Ad-3" value="" style="group" parent="OqZSjk8xdFnqXvz6G1Ad-1" vertex="1" connectable="0"><mxGeometry x="70" y="40" width="663" height="400" as="geometry"/></mxCell><mxCell id="OqZSjk8xdFnqXvz6G1Ad-4" value="方法代码" style="text;html=1;strokeColor=none;fillColor=none;align=center;verticalAlign=middle;whiteSpace=wrap;rounded=0;" parent="OqZSjk8xdFnqXvz6G1Ad-3" vertex="1"><mxGeometry x="70" width="60" height="30" as="geometry"/></mxCell><mxCell id="OqZSjk8xdFnqXvz6G1Ad-5" value="&lt;pre style=&quot;background-color:#2b2b2b;color:#a9b7c6;font-family:'JetBrains Mono',monospace;font-size:9.8pt;&quot;&gt;&lt;span style=&quot;color:#cc7832;&quot;&gt;public static void &lt;/span&gt;&lt;span style=&quot;color:#ffc66d;&quot;&gt;main&lt;/span&gt;(String[] args) {&lt;br&gt;    &lt;span style=&quot;color:#cc7832;&quot;&gt;int &lt;/span&gt;x&lt;span style=&quot;color:#cc7832;&quot;&gt;;&lt;br&gt;&lt;/span&gt;&lt;span style=&quot;color:#cc7832;&quot;&gt;    int &lt;/span&gt;y = x = &lt;span style=&quot;color:#6897bb;&quot;&gt;2&lt;/span&gt;&lt;span style=&quot;color:#cc7832;&quot;&gt;;&lt;br&gt;&lt;/span&gt;}&lt;/pre&gt;" style="text;html=1;strokeColor=default;fillColor=none;align=center;verticalAlign=middle;whiteSpace=wrap;rounded=0;" parent="OqZSjk8xdFnqXvz6G1Ad-3" vertex="1"><mxGeometry y="60" width="210" height="30" as="geometry"/></mxCell><mxCell id="OqZSjk8xdFnqXvz6G1Ad-6" value="&lt;div&gt;0 iconst_2&lt;/div&gt;&lt;div&gt;&lt;font color=&quot;#ff0000&quot;&gt;1 dup&lt;/font&gt;&lt;/div&gt;&lt;div&gt;2 istore_1&lt;/div&gt;&lt;div&gt;3 istore_2&lt;/div&gt;&lt;div&gt;4 return&lt;/div&gt;&lt;div&gt;&lt;br&gt;&lt;/div&gt;" style="text;html=1;strokeColor=default;fillColor=none;align=left;verticalAlign=middle;whiteSpace=wrap;rounded=0;" parent="OqZSjk8xdFnqXvz6G1Ad-3" vertex="1"><mxGeometry x="284" y="40" width="60" height="90" as="geometry"/></mxCell><mxCell id="OqZSjk8xdFnqXvz6G1Ad-7" value="字节码指令" style="text;html=1;strokeColor=none;fillColor=none;align=center;verticalAlign=middle;whiteSpace=wrap;rounded=0;" parent="OqZSjk8xdFnqXvz6G1Ad-3" vertex="1"><mxGeometry x="278" width="66" height="30" as="geometry"/></mxCell><mxCell id="OqZSjk8xdFnqXvz6G1Ad-8" value="" style="rounded=0;whiteSpace=wrap;html=1;strokeColor=default;" parent="OqZSjk8xdFnqXvz6G1Ad-3" vertex="1"><mxGeometry x="140" y="170" width="270" height="190" as="geometry"/></mxCell><mxCell id="OqZSjk8xdFnqXvz6G1Ad-9" value="程序计数器" style="text;html=1;strokeColor=none;fillColor=none;align=center;verticalAlign=middle;whiteSpace=wrap;rounded=0;" parent="OqZSjk8xdFnqXvz6G1Ad-3" vertex="1"><mxGeometry x="597" y="10" width="66" height="30" as="geometry"/></mxCell><mxCell id="OqZSjk8xdFnqXvz6G1Ad-10" value="本地变量表" style="text;html=1;strokeColor=none;fillColor=none;align=center;verticalAlign=middle;whiteSpace=wrap;rounded=0;" parent="OqZSjk8xdFnqXvz6G1Ad-3" vertex="1"><mxGeometry x="160" y="300" width="70" height="30" as="geometry"/></mxCell><mxCell id="OqZSjk8xdFnqXvz6G1Ad-11" value="操作数栈" style="text;html=1;strokeColor=none;fillColor=none;align=center;verticalAlign=middle;whiteSpace=wrap;rounded=0;" parent="OqZSjk8xdFnqXvz6G1Ad-3" vertex="1"><mxGeometry x="315" y="260" width="70" height="30" as="geometry"/></mxCell><mxCell id="OqZSjk8xdFnqXvz6G1Ad-12" value="args" style="rounded=0;whiteSpace=wrap;html=1;strokeColor=default;" parent="OqZSjk8xdFnqXvz6G1Ad-3" vertex="1"><mxGeometry x="140" y="170" width="120" height="40" as="geometry"/></mxCell><mxCell id="OqZSjk8xdFnqXvz6G1Ad-13" value="" style="rounded=0;whiteSpace=wrap;html=1;strokeColor=default;" parent="OqZSjk8xdFnqXvz6G1Ad-3" vertex="1"><mxGeometry x="140" y="210" width="120" height="40" as="geometry"/></mxCell><mxCell id="OqZSjk8xdFnqXvz6G1Ad-14" value="" style="rounded=0;whiteSpace=wrap;html=1;strokeColor=default;" parent="OqZSjk8xdFnqXvz6G1Ad-3" vertex="1"><mxGeometry x="140" y="250" width="120" height="40" as="geometry"/></mxCell><mxCell id="OqZSjk8xdFnqXvz6G1Ad-15" value="2" style="rounded=0;whiteSpace=wrap;html=1;strokeColor=default;" parent="OqZSjk8xdFnqXvz6G1Ad-3" vertex="1"><mxGeometry x="290" y="170" width="120" height="40" as="geometry"/></mxCell><mxCell id="OqZSjk8xdFnqXvz6G1Ad-16" value="2" style="rounded=0;whiteSpace=wrap;html=1;strokeColor=default;" parent="OqZSjk8xdFnqXvz6G1Ad-3" vertex="1"><mxGeometry x="290" y="210" width="120" height="40" as="geometry"/></mxCell><mxCell id="OqZSjk8xdFnqXvz6G1Ad-17" style="edgeStyle=orthogonalEdgeStyle;rounded=0;orthogonalLoop=1;jettySize=auto;html=1;entryX=1;entryY=0.5;entryDx=0;entryDy=0;" parent="OqZSjk8xdFnqXvz6G1Ad-3" source="OqZSjk8xdFnqXvz6G1Ad-18" target="OqZSjk8xdFnqXvz6G1Ad-15" edge="1"><mxGeometry relative="1" as="geometry"><Array as="points"><mxPoint x="560" y="53"/><mxPoint x="560" y="190"/></Array></mxGeometry></mxCell><mxCell id="OqZSjk8xdFnqXvz6G1Ad-18" value="&lt;font color=&quot;#ff0000&quot;&gt;1&lt;/font&gt;" style="rounded=0;whiteSpace=wrap;html=1;strokeColor=default;" parent="OqZSjk8xdFnqXvz6G1Ad-3" vertex="1"><mxGeometry x="597" y="40" width="60" height="25" as="geometry"/></mxCell><mxCell id="OqZSjk8xdFnqXvz6G1Ad-19" value="栈帧" style="text;html=1;strokeColor=none;fillColor=none;align=center;verticalAlign=middle;whiteSpace=wrap;rounded=0;" parent="OqZSjk8xdFnqXvz6G1Ad-3" vertex="1"><mxGeometry x="240" y="370" width="66" height="30" as="geometry"/></mxCell><mxCell id="OqZSjk8xdFnqXvz6G1Ad-20" style="edgeStyle=orthogonalEdgeStyle;rounded=0;orthogonalLoop=1;jettySize=auto;html=1;fontColor=#FF3333;" parent="OqZSjk8xdFnqXvz6G1Ad-3" source="OqZSjk8xdFnqXvz6G1Ad-21" edge="1"><mxGeometry relative="1" as="geometry"><mxPoint x="346" y="63" as="targetPoint"/></mxGeometry></mxCell><mxCell id="OqZSjk8xdFnqXvz6G1Ad-21" value="复制操作数栈顶数据" style="text;html=1;strokeColor=default;fillColor=none;align=center;verticalAlign=middle;whiteSpace=wrap;rounded=0;fontColor=#FF3333;" parent="OqZSjk8xdFnqXvz6G1Ad-3" vertex="1"><mxGeometry x="410" y="48" width="130" height="30" as="geometry"/></mxCell></root></mxGraphModel></diagram><diagram name="新建对象dup流程3" id="rBcuKloLaj5IAZQ_5ZfC"><mxGraphModel dx="1378" dy="728" grid="1" gridSize="10" guides="1" tooltips="1" connect="1" arrows="1" fold="1" page="1" pageScale="1" pageWidth="827" pageHeight="1169" math="0" shadow="0"><root><mxCell id="mGpR-lUMRr5hbdIhoNMy-0"/><mxCell id="mGpR-lUMRr5hbdIhoNMy-1" parent="mGpR-lUMRr5hbdIhoNMy-0"/><mxCell id="mGpR-lUMRr5hbdIhoNMy-2" value="" style="rounded=0;whiteSpace=wrap;html=1;fontColor=#FF0000;strokeColor=#FF0000;fillStyle=auto;" parent="mGpR-lUMRr5hbdIhoNMy-1" vertex="1"><mxGeometry x="30" y="25" width="730" height="425" as="geometry"/></mxCell><mxCell id="mGpR-lUMRr5hbdIhoNMy-3" value="" style="group" parent="mGpR-lUMRr5hbdIhoNMy-1" vertex="1" connectable="0"><mxGeometry x="70" y="40" width="663" height="400" as="geometry"/></mxCell><mxCell id="mGpR-lUMRr5hbdIhoNMy-4" value="方法代码" style="text;html=1;strokeColor=none;fillColor=none;align=center;verticalAlign=middle;whiteSpace=wrap;rounded=0;" parent="mGpR-lUMRr5hbdIhoNMy-3" vertex="1"><mxGeometry x="70" width="60" height="30" as="geometry"/></mxCell><mxCell id="mGpR-lUMRr5hbdIhoNMy-5" value="&lt;pre style=&quot;background-color:#2b2b2b;color:#a9b7c6;font-family:'JetBrains Mono',monospace;font-size:9.8pt;&quot;&gt;&lt;span style=&quot;color:#cc7832;&quot;&gt;public static void &lt;/span&gt;&lt;span style=&quot;color:#ffc66d;&quot;&gt;main&lt;/span&gt;(String[] args) {&lt;br&gt;    &lt;span style=&quot;color:#cc7832;&quot;&gt;int &lt;/span&gt;x&lt;span style=&quot;color:#cc7832;&quot;&gt;;&lt;br&gt;&lt;/span&gt;&lt;span style=&quot;color:#cc7832;&quot;&gt;    int &lt;/span&gt;y = x = &lt;span style=&quot;color:#6897bb;&quot;&gt;2&lt;/span&gt;&lt;span style=&quot;color:#cc7832;&quot;&gt;;&lt;br&gt;&lt;/span&gt;}&lt;/pre&gt;" style="text;html=1;strokeColor=default;fillColor=none;align=center;verticalAlign=middle;whiteSpace=wrap;rounded=0;" parent="mGpR-lUMRr5hbdIhoNMy-3" vertex="1"><mxGeometry y="60" width="210" height="30" as="geometry"/></mxCell><mxCell id="mGpR-lUMRr5hbdIhoNMy-6" value="&lt;div&gt;0 iconst_2&lt;/div&gt;&lt;div&gt;1 dup&lt;/div&gt;&lt;div&gt;&lt;font color=&quot;#ff0000&quot;&gt;2 istore_1&lt;/font&gt;&lt;/div&gt;&lt;div&gt;3 istore_2&lt;/div&gt;&lt;div&gt;4 return&lt;/div&gt;&lt;div&gt;&lt;br&gt;&lt;/div&gt;" style="text;html=1;strokeColor=default;fillColor=none;align=left;verticalAlign=middle;whiteSpace=wrap;rounded=0;" parent="mGpR-lUMRr5hbdIhoNMy-3" vertex="1"><mxGeometry x="284" y="40" width="60" height="90" as="geometry"/></mxCell><mxCell id="mGpR-lUMRr5hbdIhoNMy-7" value="字节码指令" style="text;html=1;strokeColor=none;fillColor=none;align=center;verticalAlign=middle;whiteSpace=wrap;rounded=0;" parent="mGpR-lUMRr5hbdIhoNMy-3" vertex="1"><mxGeometry x="278" width="66" height="30" as="geometry"/></mxCell><mxCell id="mGpR-lUMRr5hbdIhoNMy-8" value="" style="rounded=0;whiteSpace=wrap;html=1;strokeColor=default;" parent="mGpR-lUMRr5hbdIhoNMy-3" vertex="1"><mxGeometry x="140" y="170" width="270" height="190" as="geometry"/></mxCell><mxCell id="mGpR-lUMRr5hbdIhoNMy-9" value="程序计数器" style="text;html=1;strokeColor=none;fillColor=none;align=center;verticalAlign=middle;whiteSpace=wrap;rounded=0;" parent="mGpR-lUMRr5hbdIhoNMy-3" vertex="1"><mxGeometry x="597" y="10" width="66" height="30" as="geometry"/></mxCell><mxCell id="mGpR-lUMRr5hbdIhoNMy-10" value="本地变量表" style="text;html=1;strokeColor=none;fillColor=none;align=center;verticalAlign=middle;whiteSpace=wrap;rounded=0;" parent="mGpR-lUMRr5hbdIhoNMy-3" vertex="1"><mxGeometry x="160" y="300" width="70" height="30" as="geometry"/></mxCell><mxCell id="mGpR-lUMRr5hbdIhoNMy-11" value="操作数栈" style="text;html=1;strokeColor=none;fillColor=none;align=center;verticalAlign=middle;whiteSpace=wrap;rounded=0;" parent="mGpR-lUMRr5hbdIhoNMy-3" vertex="1"><mxGeometry x="315" y="260" width="70" height="30" as="geometry"/></mxCell><mxCell id="mGpR-lUMRr5hbdIhoNMy-12" value="args" style="rounded=0;whiteSpace=wrap;html=1;strokeColor=default;" parent="mGpR-lUMRr5hbdIhoNMy-3" vertex="1"><mxGeometry x="140" y="170" width="120" height="40" as="geometry"/></mxCell><mxCell id="mGpR-lUMRr5hbdIhoNMy-13" value="2" style="rounded=0;whiteSpace=wrap;html=1;strokeColor=default;" parent="mGpR-lUMRr5hbdIhoNMy-3" vertex="1"><mxGeometry x="140" y="210" width="120" height="40" as="geometry"/></mxCell><mxCell id="mGpR-lUMRr5hbdIhoNMy-14" value="" style="rounded=0;whiteSpace=wrap;html=1;strokeColor=default;" parent="mGpR-lUMRr5hbdIhoNMy-3" vertex="1"><mxGeometry x="140" y="250" width="120" height="40" as="geometry"/></mxCell><mxCell id="mGpR-lUMRr5hbdIhoNMy-15" value="2" style="rounded=0;whiteSpace=wrap;html=1;strokeColor=default;" parent="mGpR-lUMRr5hbdIhoNMy-3" vertex="1"><mxGeometry x="290" y="170" width="120" height="40" as="geometry"/></mxCell><mxCell id="mGpR-lUMRr5hbdIhoNMy-16" value="" style="rounded=0;whiteSpace=wrap;html=1;strokeColor=default;" parent="mGpR-lUMRr5hbdIhoNMy-3" vertex="1"><mxGeometry x="290" y="210" width="120" height="40" as="geometry"/></mxCell><mxCell id="mGpR-lUMRr5hbdIhoNMy-17" style="edgeStyle=orthogonalEdgeStyle;rounded=0;orthogonalLoop=1;jettySize=auto;html=1;entryX=1;entryY=0.5;entryDx=0;entryDy=0;" parent="mGpR-lUMRr5hbdIhoNMy-3" source="mGpR-lUMRr5hbdIhoNMy-18" target="mGpR-lUMRr5hbdIhoNMy-15" edge="1"><mxGeometry relative="1" as="geometry"><Array as="points"><mxPoint x="560" y="53"/><mxPoint x="560" y="190"/></Array></mxGeometry></mxCell><mxCell id="mGpR-lUMRr5hbdIhoNMy-18" value="&lt;font color=&quot;#ff0000&quot;&gt;2&lt;/font&gt;" style="rounded=0;whiteSpace=wrap;html=1;strokeColor=default;" parent="mGpR-lUMRr5hbdIhoNMy-3" vertex="1"><mxGeometry x="597" y="40" width="60" height="25" as="geometry"/></mxCell><mxCell id="mGpR-lUMRr5hbdIhoNMy-19" value="栈帧" style="text;html=1;strokeColor=none;fillColor=none;align=center;verticalAlign=middle;whiteSpace=wrap;rounded=0;" parent="mGpR-lUMRr5hbdIhoNMy-3" vertex="1"><mxGeometry x="240" y="370" width="66" height="30" as="geometry"/></mxCell><mxCell id="mGpR-lUMRr5hbdIhoNMy-20" style="edgeStyle=orthogonalEdgeStyle;rounded=0;orthogonalLoop=1;jettySize=auto;html=1;fontColor=#FF3333;" parent="mGpR-lUMRr5hbdIhoNMy-3" source="mGpR-lUMRr5hbdIhoNMy-21" edge="1"><mxGeometry relative="1" as="geometry"><mxPoint x="346" y="77" as="targetPoint"/></mxGeometry></mxCell><mxCell id="mGpR-lUMRr5hbdIhoNMy-21" value="将操作数栈顶数据弹出并保存在本地变量表1中" style="text;html=1;strokeColor=default;fillColor=none;align=center;verticalAlign=middle;whiteSpace=wrap;rounded=0;fontColor=#FF3333;" parent="mGpR-lUMRr5hbdIhoNMy-3" vertex="1"><mxGeometry x="410" y="62" width="130" height="30" as="geometry"/></mxCell></root></mxGraphModel></diagram><diagram name="新建对象dup流程4" id="5fU22asqU2-WJJBTNMaZ"><mxGraphModel dx="1378" dy="728" grid="1" gridSize="10" guides="1" tooltips="1" connect="1" arrows="1" fold="1" page="1" pageScale="1" pageWidth="827" pageHeight="1169" math="0" shadow="0"><root><mxCell id="PxvI1BrKJVFZjPNvmHJw-0"/><mxCell id="PxvI1BrKJVFZjPNvmHJw-1" parent="PxvI1BrKJVFZjPNvmHJw-0"/><mxCell id="PxvI1BrKJVFZjPNvmHJw-2" value="" style="rounded=0;whiteSpace=wrap;html=1;fontColor=#FF0000;strokeColor=#FF0000;fillStyle=auto;" parent="PxvI1BrKJVFZjPNvmHJw-1" vertex="1"><mxGeometry x="30" y="25" width="730" height="425" as="geometry"/></mxCell><mxCell id="PxvI1BrKJVFZjPNvmHJw-3" value="" style="group" parent="PxvI1BrKJVFZjPNvmHJw-1" vertex="1" connectable="0"><mxGeometry x="70" y="40" width="663" height="400" as="geometry"/></mxCell><mxCell id="PxvI1BrKJVFZjPNvmHJw-4" value="方法代码" style="text;html=1;strokeColor=none;fillColor=none;align=center;verticalAlign=middle;whiteSpace=wrap;rounded=0;" parent="PxvI1BrKJVFZjPNvmHJw-3" vertex="1"><mxGeometry x="70" width="60" height="30" as="geometry"/></mxCell><mxCell id="PxvI1BrKJVFZjPNvmHJw-5" value="&lt;pre style=&quot;background-color:#2b2b2b;color:#a9b7c6;font-family:'JetBrains Mono',monospace;font-size:9.8pt;&quot;&gt;&lt;span style=&quot;color:#cc7832;&quot;&gt;public static void &lt;/span&gt;&lt;span style=&quot;color:#ffc66d;&quot;&gt;main&lt;/span&gt;(String[] args) {&lt;br&gt;    &lt;span style=&quot;color:#cc7832;&quot;&gt;int &lt;/span&gt;x&lt;span style=&quot;color:#cc7832;&quot;&gt;;&lt;br&gt;&lt;/span&gt;&lt;span style=&quot;color:#cc7832;&quot;&gt;    int &lt;/span&gt;y = x = &lt;span style=&quot;color:#6897bb;&quot;&gt;2&lt;/span&gt;&lt;span style=&quot;color:#cc7832;&quot;&gt;;&lt;br&gt;&lt;/span&gt;}&lt;/pre&gt;" style="text;html=1;strokeColor=default;fillColor=none;align=center;verticalAlign=middle;whiteSpace=wrap;rounded=0;" parent="PxvI1BrKJVFZjPNvmHJw-3" vertex="1"><mxGeometry y="60" width="210" height="30" as="geometry"/></mxCell><mxCell id="PxvI1BrKJVFZjPNvmHJw-6" value="&lt;div&gt;0 iconst_2&lt;/div&gt;&lt;div&gt;1 dup&lt;/div&gt;&lt;div&gt;2 istore_1&lt;/div&gt;&lt;div&gt;&lt;font color=&quot;#ff0000&quot;&gt;3 istore_2&lt;/font&gt;&lt;/div&gt;&lt;div&gt;4 return&lt;/div&gt;&lt;div&gt;&lt;br&gt;&lt;/div&gt;" style="text;html=1;strokeColor=default;fillColor=none;align=left;verticalAlign=middle;whiteSpace=wrap;rounded=0;" parent="PxvI1BrKJVFZjPNvmHJw-3" vertex="1"><mxGeometry x="284" y="40" width="60" height="90" as="geometry"/></mxCell><mxCell id="PxvI1BrKJVFZjPNvmHJw-7" value="字节码指令" style="text;html=1;strokeColor=none;fillColor=none;align=center;verticalAlign=middle;whiteSpace=wrap;rounded=0;" parent="PxvI1BrKJVFZjPNvmHJw-3" vertex="1"><mxGeometry x="278" width="66" height="30" as="geometry"/></mxCell><mxCell id="PxvI1BrKJVFZjPNvmHJw-8" value="" style="rounded=0;whiteSpace=wrap;html=1;strokeColor=default;" parent="PxvI1BrKJVFZjPNvmHJw-3" vertex="1"><mxGeometry x="140" y="170" width="270" height="190" as="geometry"/></mxCell><mxCell id="PxvI1BrKJVFZjPNvmHJw-9" value="程序计数器" style="text;html=1;strokeColor=none;fillColor=none;align=center;verticalAlign=middle;whiteSpace=wrap;rounded=0;" parent="PxvI1BrKJVFZjPNvmHJw-3" vertex="1"><mxGeometry x="597" y="10" width="66" height="30" as="geometry"/></mxCell><mxCell id="PxvI1BrKJVFZjPNvmHJw-10" value="本地变量表" style="text;html=1;strokeColor=none;fillColor=none;align=center;verticalAlign=middle;whiteSpace=wrap;rounded=0;" parent="PxvI1BrKJVFZjPNvmHJw-3" vertex="1"><mxGeometry x="160" y="300" width="70" height="30" as="geometry"/></mxCell><mxCell id="PxvI1BrKJVFZjPNvmHJw-11" value="操作数栈" style="text;html=1;strokeColor=none;fillColor=none;align=center;verticalAlign=middle;whiteSpace=wrap;rounded=0;" parent="PxvI1BrKJVFZjPNvmHJw-3" vertex="1"><mxGeometry x="315" y="260" width="70" height="30" as="geometry"/></mxCell><mxCell id="PxvI1BrKJVFZjPNvmHJw-12" value="args" style="rounded=0;whiteSpace=wrap;html=1;strokeColor=default;" parent="PxvI1BrKJVFZjPNvmHJw-3" vertex="1"><mxGeometry x="140" y="170" width="120" height="40" as="geometry"/></mxCell><mxCell id="PxvI1BrKJVFZjPNvmHJw-13" value="2" style="rounded=0;whiteSpace=wrap;html=1;strokeColor=default;" parent="PxvI1BrKJVFZjPNvmHJw-3" vertex="1"><mxGeometry x="140" y="210" width="120" height="40" as="geometry"/></mxCell><mxCell id="PxvI1BrKJVFZjPNvmHJw-14" value="2" style="rounded=0;whiteSpace=wrap;html=1;strokeColor=default;" parent="PxvI1BrKJVFZjPNvmHJw-3" vertex="1"><mxGeometry x="140" y="250" width="120" height="40" as="geometry"/></mxCell><mxCell id="PxvI1BrKJVFZjPNvmHJw-15" value="" style="rounded=0;whiteSpace=wrap;html=1;strokeColor=default;" parent="PxvI1BrKJVFZjPNvmHJw-3" vertex="1"><mxGeometry x="290" y="170" width="120" height="40" as="geometry"/></mxCell><mxCell id="PxvI1BrKJVFZjPNvmHJw-16" value="" style="rounded=0;whiteSpace=wrap;html=1;strokeColor=default;" parent="PxvI1BrKJVFZjPNvmHJw-3" vertex="1"><mxGeometry x="290" y="210" width="120" height="40" as="geometry"/></mxCell><mxCell id="PxvI1BrKJVFZjPNvmHJw-17" style="edgeStyle=orthogonalEdgeStyle;rounded=0;orthogonalLoop=1;jettySize=auto;html=1;entryX=1;entryY=0.5;entryDx=0;entryDy=0;" parent="PxvI1BrKJVFZjPNvmHJw-3" source="PxvI1BrKJVFZjPNvmHJw-18" target="PxvI1BrKJVFZjPNvmHJw-15" edge="1"><mxGeometry relative="1" as="geometry"><Array as="points"><mxPoint x="560" y="53"/><mxPoint x="560" y="190"/></Array></mxGeometry></mxCell><mxCell id="PxvI1BrKJVFZjPNvmHJw-18" value="&lt;font color=&quot;#ff0000&quot;&gt;3&lt;/font&gt;" style="rounded=0;whiteSpace=wrap;html=1;strokeColor=default;" parent="PxvI1BrKJVFZjPNvmHJw-3" vertex="1"><mxGeometry x="597" y="40" width="60" height="25" as="geometry"/></mxCell><mxCell id="PxvI1BrKJVFZjPNvmHJw-19" value="栈帧" style="text;html=1;strokeColor=none;fillColor=none;align=center;verticalAlign=middle;whiteSpace=wrap;rounded=0;" parent="PxvI1BrKJVFZjPNvmHJw-3" vertex="1"><mxGeometry x="240" y="370" width="66" height="30" as="geometry"/></mxCell><mxCell id="PxvI1BrKJVFZjPNvmHJw-20" style="edgeStyle=orthogonalEdgeStyle;rounded=0;orthogonalLoop=1;jettySize=auto;html=1;fontColor=#FF3333;" parent="PxvI1BrKJVFZjPNvmHJw-3" source="PxvI1BrKJVFZjPNvmHJw-21" edge="1"><mxGeometry relative="1" as="geometry"><mxPoint x="346" y="92" as="targetPoint"/></mxGeometry></mxCell><mxCell id="PxvI1BrKJVFZjPNvmHJw-21" value="将操作数栈顶数据弹出并保存在本地变量表2中" style="text;html=1;strokeColor=default;fillColor=none;align=center;verticalAlign=middle;whiteSpace=wrap;rounded=0;fontColor=#FF3333;" parent="PxvI1BrKJVFZjPNvmHJw-3" vertex="1"><mxGeometry x="410" y="77" width="130" height="30" as="geometry"/></mxCell></root></mxGraphModel></diagram><diagram name="新建对象dup流程5" id="xeblJbrTwriw99tjac1U"><mxGraphModel dx="1378" dy="728" grid="1" gridSize="10" guides="1" tooltips="1" connect="1" arrows="1" fold="1" page="1" pageScale="1" pageWidth="827" pageHeight="1169" math="0" shadow="0"><root><mxCell id="MOR2A6F76fGMaFodaX4n-0"/><mxCell id="MOR2A6F76fGMaFodaX4n-1" parent="MOR2A6F76fGMaFodaX4n-0"/><mxCell id="MOR2A6F76fGMaFodaX4n-2" value="" style="rounded=0;whiteSpace=wrap;html=1;fontColor=#FF0000;strokeColor=#FF0000;fillStyle=auto;" parent="MOR2A6F76fGMaFodaX4n-1" vertex="1"><mxGeometry x="30" y="25" width="730" height="425" as="geometry"/></mxCell><mxCell id="MOR2A6F76fGMaFodaX4n-3" value="" style="group" parent="MOR2A6F76fGMaFodaX4n-1" vertex="1" connectable="0"><mxGeometry x="70" y="40" width="663" height="400" as="geometry"/></mxCell><mxCell id="MOR2A6F76fGMaFodaX4n-4" value="方法代码" style="text;html=1;strokeColor=none;fillColor=none;align=center;verticalAlign=middle;whiteSpace=wrap;rounded=0;" parent="MOR2A6F76fGMaFodaX4n-3" vertex="1"><mxGeometry x="70" width="60" height="30" as="geometry"/></mxCell><mxCell id="MOR2A6F76fGMaFodaX4n-5" value="&lt;pre style=&quot;background-color:#2b2b2b;color:#a9b7c6;font-family:'JetBrains Mono',monospace;font-size:9.8pt;&quot;&gt;&lt;span style=&quot;color:#cc7832;&quot;&gt;public static void &lt;/span&gt;&lt;span style=&quot;color:#ffc66d;&quot;&gt;main&lt;/span&gt;(String[] args) {&lt;br&gt;    &lt;span style=&quot;color:#cc7832;&quot;&gt;int &lt;/span&gt;x&lt;span style=&quot;color:#cc7832;&quot;&gt;;&lt;br&gt;&lt;/span&gt;&lt;span style=&quot;color:#cc7832;&quot;&gt;    int &lt;/span&gt;y = x = &lt;span style=&quot;color:#6897bb;&quot;&gt;2&lt;/span&gt;&lt;span style=&quot;color:#cc7832;&quot;&gt;;&lt;br&gt;&lt;/span&gt;}&lt;/pre&gt;" style="text;html=1;strokeColor=default;fillColor=none;align=center;verticalAlign=middle;whiteSpace=wrap;rounded=0;" parent="MOR2A6F76fGMaFodaX4n-3" vertex="1"><mxGeometry y="60" width="210" height="30" as="geometry"/></mxCell><mxCell id="MOR2A6F76fGMaFodaX4n-6" value="&lt;div&gt;0 iconst_2&lt;/div&gt;&lt;div&gt;1 dup&lt;/div&gt;&lt;div&gt;2 istore_1&lt;/div&gt;&lt;div&gt;3 istore_2&lt;/div&gt;&lt;div&gt;&lt;font color=&quot;#ff0000&quot;&gt;4 return&lt;/font&gt;&lt;/div&gt;&lt;div&gt;&lt;br&gt;&lt;/div&gt;" style="text;html=1;strokeColor=default;fillColor=none;align=left;verticalAlign=middle;whiteSpace=wrap;rounded=0;" parent="MOR2A6F76fGMaFodaX4n-3" vertex="1"><mxGeometry x="284" y="40" width="60" height="90" as="geometry"/></mxCell><mxCell id="MOR2A6F76fGMaFodaX4n-7" value="字节码指令" style="text;html=1;strokeColor=none;fillColor=none;align=center;verticalAlign=middle;whiteSpace=wrap;rounded=0;" parent="MOR2A6F76fGMaFodaX4n-3" vertex="1"><mxGeometry x="278" width="66" height="30" as="geometry"/></mxCell><mxCell id="MOR2A6F76fGMaFodaX4n-8" value="" style="rounded=0;whiteSpace=wrap;html=1;strokeColor=default;" parent="MOR2A6F76fGMaFodaX4n-3" vertex="1"><mxGeometry x="140" y="170" width="270" height="190" as="geometry"/></mxCell><mxCell id="MOR2A6F76fGMaFodaX4n-9" value="程序计数器" style="text;html=1;strokeColor=none;fillColor=none;align=center;verticalAlign=middle;whiteSpace=wrap;rounded=0;" parent="MOR2A6F76fGMaFodaX4n-3" vertex="1"><mxGeometry x="597" y="10" width="66" height="30" as="geometry"/></mxCell><mxCell id="MOR2A6F76fGMaFodaX4n-10" value="本地变量表" style="text;html=1;strokeColor=none;fillColor=none;align=center;verticalAlign=middle;whiteSpace=wrap;rounded=0;" parent="MOR2A6F76fGMaFodaX4n-3" vertex="1"><mxGeometry x="160" y="300" width="70" height="30" as="geometry"/></mxCell><mxCell id="MOR2A6F76fGMaFodaX4n-11" value="操作数栈" style="text;html=1;strokeColor=none;fillColor=none;align=center;verticalAlign=middle;whiteSpace=wrap;rounded=0;" parent="MOR2A6F76fGMaFodaX4n-3" vertex="1"><mxGeometry x="315" y="260" width="70" height="30" as="geometry"/></mxCell><mxCell id="MOR2A6F76fGMaFodaX4n-12" value="args" style="rounded=0;whiteSpace=wrap;html=1;strokeColor=default;" parent="MOR2A6F76fGMaFodaX4n-3" vertex="1"><mxGeometry x="140" y="170" width="120" height="40" as="geometry"/></mxCell><mxCell id="MOR2A6F76fGMaFodaX4n-13" value="2" style="rounded=0;whiteSpace=wrap;html=1;strokeColor=default;" parent="MOR2A6F76fGMaFodaX4n-3" vertex="1"><mxGeometry x="140" y="210" width="120" height="40" as="geometry"/></mxCell><mxCell id="MOR2A6F76fGMaFodaX4n-14" value="2" style="rounded=0;whiteSpace=wrap;html=1;strokeColor=default;" parent="MOR2A6F76fGMaFodaX4n-3" vertex="1"><mxGeometry x="140" y="250" width="120" height="40" as="geometry"/></mxCell><mxCell id="MOR2A6F76fGMaFodaX4n-15" value="" style="rounded=0;whiteSpace=wrap;html=1;strokeColor=default;" parent="MOR2A6F76fGMaFodaX4n-3" vertex="1"><mxGeometry x="290" y="170" width="120" height="40" as="geometry"/></mxCell><mxCell id="MOR2A6F76fGMaFodaX4n-16" value="" style="rounded=0;whiteSpace=wrap;html=1;strokeColor=default;" parent="MOR2A6F76fGMaFodaX4n-3" vertex="1"><mxGeometry x="290" y="210" width="120" height="40" as="geometry"/></mxCell><mxCell id="MOR2A6F76fGMaFodaX4n-17" style="edgeStyle=orthogonalEdgeStyle;rounded=0;orthogonalLoop=1;jettySize=auto;html=1;entryX=1;entryY=0.5;entryDx=0;entryDy=0;" parent="MOR2A6F76fGMaFodaX4n-3" source="MOR2A6F76fGMaFodaX4n-18" target="MOR2A6F76fGMaFodaX4n-15" edge="1"><mxGeometry relative="1" as="geometry"><Array as="points"><mxPoint x="560" y="53"/><mxPoint x="560" y="190"/></Array></mxGeometry></mxCell><mxCell id="MOR2A6F76fGMaFodaX4n-18" value="&lt;font color=&quot;#ff0000&quot;&gt;4&lt;/font&gt;" style="rounded=0;whiteSpace=wrap;html=1;strokeColor=default;" parent="MOR2A6F76fGMaFodaX4n-3" vertex="1"><mxGeometry x="597" y="40" width="60" height="25" as="geometry"/></mxCell><mxCell id="MOR2A6F76fGMaFodaX4n-19" value="栈帧" style="text;html=1;strokeColor=none;fillColor=none;align=center;verticalAlign=middle;whiteSpace=wrap;rounded=0;" parent="MOR2A6F76fGMaFodaX4n-3" vertex="1"><mxGeometry x="240" y="370" width="66" height="30" as="geometry"/></mxCell><mxCell id="MOR2A6F76fGMaFodaX4n-20" style="edgeStyle=orthogonalEdgeStyle;rounded=0;orthogonalLoop=1;jettySize=auto;html=1;fontColor=#FF3333;" parent="MOR2A6F76fGMaFodaX4n-3" source="MOR2A6F76fGMaFodaX4n-21" edge="1"><mxGeometry relative="1" as="geometry"><mxPoint x="346" y="106" as="targetPoint"/></mxGeometry></mxCell><mxCell id="MOR2A6F76fGMaFodaX4n-21" value="返回方法，并弹出该栈帧" style="text;html=1;strokeColor=default;fillColor=none;align=center;verticalAlign=middle;whiteSpace=wrap;rounded=0;fontColor=#FF3333;" parent="MOR2A6F76fGMaFodaX4n-3" vertex="1"><mxGeometry x="410" y="91" width="130" height="30" as="geometry"/></mxCell></root></mxGraphModel></diagram></mxfile>